<?xml version="1.0" encoding="UTF-8" standalone="no"?>
<!DOCTYPE svg PUBLIC "-//W3C//DTD SVG 1.1//EN" "http://www.w3.org/Graphics/SVG/1.1/DTD/svg11.dtd">
<svg width="100%" height="100%" viewBox="0 0 94 142" version="1.1" xmlns="http://www.w3.org/2000/svg" xmlns:xlink="http://www.w3.org/1999/xlink" xml:space="preserve" xmlns:serif="http://www.serif.com/" style="fill-rule:evenodd;clip-rule:evenodd;stroke-linejoin:round;stroke-miterlimit:2;">
    <g transform="matrix(1,0,0,1,-4692.641899,-4141.695675)">
        <g transform="matrix(1,0,0,1,4402.96061,3714.654989)">
            <g transform="matrix(1.106291,0,0,1.106291,-2439.36255,-1668.226765)">
                <path d="M2551.212,1944.297L2551.212,2015.169C2551.212,2018.894 2548.188,2021.919 2544.463,2021.919L2473.591,2021.919C2469.865,2021.919 2466.841,2018.894 2466.841,2015.169L2466.841,1944.297C2466.841,1940.572 2469.865,1937.547 2473.591,1937.547L2544.463,1937.547C2548.188,1937.547 2551.212,1940.572 2551.212,1944.297ZM2518.101,1975.008C2518.101,1974.511 2517.698,1974.108 2517.201,1974.108L2481.503,1974.108C2481.006,1974.108 2480.603,1974.511 2480.603,1975.008L2480.603,1984.458C2480.603,1984.954 2481.006,1985.358 2481.503,1985.358L2517.201,1985.358C2517.698,1985.358 2518.101,1984.954 2518.101,1984.458L2518.101,1975.008ZM2536.85,1997.507C2536.85,1997.01 2536.447,1996.607 2535.95,1996.607L2481.503,1996.607C2481.006,1996.607 2480.603,1997.01 2480.603,1997.507L2480.603,2006.957C2480.603,2007.453 2481.006,2007.857 2481.503,2007.857L2535.95,2007.857C2536.447,2007.857 2536.85,2007.453 2536.85,2006.957L2536.85,1997.507ZM2527.476,1952.509C2527.476,1952.012 2527.072,1951.609 2526.576,1951.609L2481.503,1951.609C2481.006,1951.609 2480.603,1952.012 2480.603,1952.509L2480.603,1961.959C2480.603,1962.455 2481.006,1962.859 2481.503,1962.859L2526.576,1962.859C2527.072,1962.859 2527.476,1962.455 2527.476,1961.959L2527.476,1952.509Z" style="fill:rgb(67,0,255);"/>
            </g>
            <g transform="matrix(0.667406,0,0,0.667406,-1359.351326,-928.950637)">
                <path d="M2540.737,2031.735L2547.39,2052.211L2568.92,2052.211L2551.502,2064.866L2558.155,2085.343L2540.737,2072.687L2523.318,2085.343L2529.972,2064.866L2512.553,2052.211L2534.084,2052.211L2540.737,2031.735Z" style="fill:rgb(197,189,43);"/>
            </g>
        </g>
    </g>
</svg>
